<?xml version="1.0" encoding="utf-8"?><svg width="210" height="80" viewBox="0 0 210 80" fill="none" xmlns="http://www.w3.org/2000/svg">
<path d="M181.992 50.8354C180.14 50.8354 178.448 50.3579 176.917 49.4023C175.4 48.447 174.185 47.1688 173.272 45.5675C172.372 43.9526 171.922 42.1698 171.922 40.2186C171.922 38.7385 172.184 37.3593 172.708 36.0811C173.231 34.7891 173.95 33.6589 174.863 32.6901C175.789 31.7077 176.864 30.9407 178.085 30.3892C179.307 29.8374 180.61 29.5615 181.992 29.5615C183.483 29.5615 184.853 29.8575 186.101 30.4497C187.363 31.0418 188.444 31.8693 189.344 32.9323C190.257 33.9953 190.942 35.2401 191.398 36.6663C191.868 38.0925 192.063 39.6334 191.982 41.2885H174.903C175.064 42.5667 175.467 43.7104 176.112 44.7196C176.769 45.729 177.602 46.5294 178.609 47.1216C179.629 47.7002 180.757 47.9962 181.992 48.0098C183.335 48.0098 184.544 47.6598 185.618 46.96C186.705 46.2604 187.578 45.2982 188.236 44.0739L191.096 44.74C190.291 46.5294 189.075 47.9962 187.451 49.1399C185.826 50.2703 184.007 50.8354 181.992 50.8354ZM174.823 39.0075H189.142C189.049 37.7561 188.666 36.6125 187.995 35.5765C187.337 34.5267 186.484 33.6926 185.437 33.0737C184.389 32.4412 183.241 32.125 181.992 32.125C180.744 32.125 179.603 32.4343 178.569 33.0533C177.535 33.6589 176.689 34.4864 176.031 35.5359C175.373 36.5721 174.97 37.7293 174.823 39.0075Z" fill="black"/>
<path d="M137.727 50.3107V30.1268H140.547V32.9121C141.272 31.8894 142.198 31.0755 143.326 30.4698C144.454 29.8644 145.69 29.5615 147.032 29.5615C148.55 29.5615 149.939 29.9384 151.201 30.6919C152.464 31.4321 153.451 32.4211 154.162 33.6589C154.874 32.4211 155.854 31.4321 157.103 30.6919C158.351 29.9384 159.734 29.5615 161.251 29.5615C162.769 29.5615 164.152 29.9316 165.4 30.6717C166.649 31.4116 167.643 32.4075 168.381 33.6589C169.12 34.9103 169.489 36.2962 169.489 37.8169V50.3107H166.669V38.4425C166.669 37.3659 166.407 36.3702 165.884 35.4552C165.36 34.5402 164.655 33.807 163.769 33.2552C162.897 32.6901 161.923 32.4075 160.849 32.4075C159.775 32.4075 158.794 32.6699 157.908 33.1947C157.036 33.7059 156.337 34.4193 155.813 35.3343C155.29 36.2357 155.028 37.2717 155.028 38.4425V50.3107H152.208V38.4425C152.208 37.2717 151.947 36.2357 151.423 35.3343C150.899 34.4193 150.194 33.7059 149.308 33.1947C148.422 32.6699 147.442 32.4075 146.368 32.4075C145.307 32.4075 144.333 32.6901 143.447 33.2552C142.561 33.807 141.856 34.5402 141.332 35.4552C140.809 36.3702 140.547 37.3659 140.547 38.4425V50.3107H137.727Z" fill="black"/>
<path d="M130.878 30.1268H133.697V50.3107H130.878L130.777 46.5565C130.119 47.8347 129.199 48.8709 128.018 49.6647C126.836 50.4452 125.426 50.8354 123.788 50.8354C122.311 50.8354 120.928 50.5595 119.639 50.0079C118.35 49.4426 117.216 48.669 116.236 47.6866C115.255 46.7045 114.49 45.5675 113.939 44.2757C113.389 42.9838 113.114 41.5979 113.114 40.1178C113.114 38.6645 113.382 37.2988 113.919 36.0203C114.47 34.7421 115.222 33.6186 116.175 32.6498C117.142 31.6809 118.256 30.9275 119.518 30.3892C120.794 29.8374 122.157 29.5615 123.607 29.5615C125.285 29.5615 126.749 29.9652 127.997 30.7725C129.246 31.5666 130.24 32.6094 130.978 33.9011L130.878 30.1268ZM123.728 48.0904C125.164 48.0904 126.4 47.7405 127.434 47.0409C128.468 46.3278 129.259 45.3722 129.81 44.1747C130.374 42.9771 130.656 41.6586 130.656 40.2186C130.656 38.7385 130.374 37.4065 129.81 36.2222C129.246 35.0247 128.447 34.076 127.413 33.3764C126.379 32.6766 125.151 32.3269 123.728 32.3269C122.305 32.3269 121.002 32.6834 119.82 33.3966C118.652 34.0961 117.719 35.0448 117.021 36.2424C116.336 37.4402 115.994 38.7653 115.994 40.2186C115.994 41.6854 116.349 43.0175 117.061 44.215C117.773 45.3993 118.713 46.3411 119.881 47.0409C121.062 47.7405 122.345 48.0904 123.728 48.0904Z" fill="black"/>
<path d="M103.394 50.694C102.294 50.6672 101.219 50.4653 100.172 50.0886C99.1247 49.7119 98.2116 49.2004 97.4328 48.5547C96.6543 47.9087 96.0968 47.1754 95.7614 46.3546L98.1982 45.3051C98.4129 45.8298 98.8094 46.3143 99.3865 46.7584C99.9776 47.1889 100.648 47.5386 101.401 47.8079C102.153 48.0634 102.898 48.1912 103.636 48.1912C104.455 48.1912 105.22 48.0567 105.932 47.7877C106.644 47.5184 107.221 47.1351 107.664 46.6371C108.121 46.1259 108.349 45.5271 108.349 44.8408C108.349 44.1006 108.107 43.5221 107.624 43.105C107.141 42.6744 106.53 42.338 105.791 42.0958C105.053 41.8401 104.294 41.5979 103.515 41.3692C102.092 40.9789 100.837 40.5484 99.7492 40.0775C98.6614 39.6063 97.8087 39.0075 97.1911 38.2809C96.587 37.541 96.285 36.5923 96.285 35.4351C96.285 34.2105 96.6273 33.1543 97.3121 32.2662C98.0102 31.3647 98.9166 30.6717 100.031 30.1873C101.159 29.6893 102.36 29.4405 103.636 29.4405C105.274 29.4405 106.765 29.797 108.107 30.5102C109.464 31.2233 110.444 32.172 111.048 33.3562L108.772 34.7084C108.53 34.1566 108.148 33.6791 107.624 33.2753C107.1 32.8718 106.503 32.5556 105.831 32.3269C105.174 32.0979 104.502 31.977 103.817 31.9634C102.958 31.9499 102.159 32.0778 101.421 32.347C100.682 32.6025 100.085 32.9861 99.6282 33.4974C99.185 34.0089 98.9637 34.6344 98.9637 35.3746C98.9637 36.1145 99.185 36.6798 99.6282 37.0701C100.071 37.4468 100.669 37.7561 101.421 37.9984C102.186 38.2273 103.045 38.4963 103.999 38.8059C105.22 39.1962 106.369 39.64 107.443 40.138C108.517 40.6359 109.383 41.2548 110.041 41.9948C110.699 42.7349 111.021 43.6701 111.008 44.8005C111.008 46.0116 110.645 47.0677 109.92 47.9692C109.195 48.8709 108.255 49.5638 107.1 50.0483C105.946 50.5192 104.711 50.7346 103.394 50.694Z" fill="black"/>
<path d="M83.6895 50.8354C81.8364 50.8354 80.1446 50.3579 78.614 49.4023C77.0966 48.447 75.8817 47.1688 74.9685 45.5675C74.0692 43.9526 73.6192 42.1698 73.6192 40.2186C73.6192 38.7385 73.881 37.3593 74.4046 36.0811C74.9282 34.7891 75.6464 33.6589 76.5597 32.6901C77.486 31.7077 78.5605 30.9407 79.7822 30.3892C81.0039 29.8374 82.3066 29.5615 83.6895 29.5615C85.1799 29.5615 86.5493 29.8575 87.798 30.4497C89.06 31.0418 90.1411 31.8693 91.0406 32.9323C91.9539 33.9953 92.6385 35.2401 93.0949 36.6663C93.565 38.0925 93.7596 39.6334 93.6791 41.2885H76.5999C76.7612 42.5667 77.1638 43.7104 77.8084 44.7196C78.4662 45.729 79.2988 46.5294 80.3058 47.1216C81.3261 47.7002 82.4541 47.9962 83.6895 48.0098C85.0319 48.0098 86.2404 47.6598 87.3146 46.96C88.4024 46.2604 89.2752 45.2982 89.933 44.0739L92.7928 44.74C91.9873 46.5294 90.7719 47.9962 89.1476 49.1399C87.523 50.2703 85.7035 50.8354 83.6895 50.8354ZM76.5195 39.0075H90.8392C90.7454 37.7561 90.3627 36.6125 89.6913 35.5765C89.0335 34.5267 88.1808 33.6926 87.1333 33.0737C86.0861 32.4412 84.9382 32.125 83.6895 32.125C82.4406 32.125 81.2996 32.4343 80.2656 33.0533C79.2316 33.6589 78.3855 34.4864 77.7277 35.5359C77.0701 36.5721 76.6672 37.7293 76.5195 39.0075Z" fill="black"/>
<path d="M63.9002 50.694C62.7994 50.6672 61.7252 50.4653 60.6777 50.0886C59.6304 49.7119 58.7174 49.2004 57.9386 48.5547C57.16 47.9087 56.6028 47.1754 56.2671 46.3546L58.7039 45.3051C58.9186 45.8298 59.3151 46.3143 59.8923 46.7584C60.4831 47.1889 61.1542 47.5386 61.9063 47.8079C62.6584 48.0634 63.4035 48.1912 64.1419 48.1912C64.9609 48.1912 65.7262 48.0567 66.4381 47.7877C67.1497 47.5184 67.727 47.1351 68.1702 46.6371C68.6266 46.1259 68.8548 45.5271 68.8548 44.8408C68.8548 44.1006 68.6131 43.5221 68.1297 43.105C67.6463 42.6744 67.0353 42.338 66.297 42.0958C65.5587 41.8401 64.7997 41.5979 64.0211 41.3692C62.598 40.9789 61.3424 40.5484 60.2549 40.0775C59.1672 39.6063 58.3145 39.0075 57.6969 38.2809C57.0928 37.541 56.7907 36.5923 56.7907 35.4351C56.7907 34.2105 57.133 33.1543 57.8179 32.2662C58.516 31.3647 59.4221 30.6717 60.5369 30.1873C61.6646 29.6893 62.8662 29.4405 64.1419 29.4405C65.7802 29.4405 67.2706 29.797 68.6131 30.5102C69.9695 31.2233 70.9495 32.172 71.5536 33.3562L69.2778 34.7084C69.0361 34.1566 68.6535 33.6791 68.1297 33.2753C67.606 32.8718 67.0088 32.5556 66.3372 32.3269C65.6794 32.0979 65.008 31.977 64.3232 31.9634C63.4642 31.9499 62.665 32.0778 61.9264 32.347C61.1881 32.6025 60.5903 32.9861 60.134 33.4974C59.6908 34.0089 59.4695 34.6344 59.4695 35.3746C59.4695 36.1145 59.6908 36.6798 60.134 37.0701C60.5771 37.4468 61.1746 37.7561 61.9264 37.9984C62.692 38.2273 63.551 38.4963 64.5045 38.8059C65.7262 39.1962 66.8743 39.64 67.9486 40.138C69.0228 40.6359 69.8887 41.2548 70.5466 41.9948C71.2044 42.7349 71.5266 43.6701 71.5134 44.8005C71.5134 46.0116 71.1509 47.0677 70.4259 47.9692C69.7008 48.8709 68.761 49.5638 67.606 50.0483C66.4513 50.5192 65.2164 50.7346 63.9002 50.694Z" fill="black"/>
<path d="M43.944 40V55C41.2179 55 38.6636 54.2679 36.4601 52.992C31.9858 50.3999 28.9763 45.552 28.9763 40V25C31.7024 25 34.2569 25.732 36.4601 27.008C40.9345 29.6001 43.944 34.448 43.944 40ZM21.6921 26.004C20.6063 25.3639 19.3451 25 18 25V32.5C18 35.276 19.4848 37.7001 21.6921 38.996C22.7777 39.6361 24.0389 40 25.384 40V32.5C25.384 29.724 23.8993 27.2999 21.6921 26.004Z" fill="black"/>
</svg>
